<svg width="420" height="110" viewBox="0 0 420 110" fill="none" xmlns="http://www.w3.org/2000/svg">
<path d="M25.4711 76.7734C25.2125 80.2226 24.1782 90.3522 23.4024 97.6874C23.1007 100.482 22.9283 102.665 22.799 104.455H22.5835C22.4112 102.708 22.2388 100.482 21.8509 97.6874C20.9458 90.2212 19.9545 79.9607 19.696 76.7734C18.7047 76.817 17.3687 76.817 16.2481 76.817C15.2137 76.817 13.4898 76.817 12.4554 76.7734C12.283 80.179 11.0332 90.3522 10.2574 97.5564C9.95574 100.176 9.74025 102.403 9.56786 104.237H9.30927C9.13687 102.447 8.96448 100.176 8.70589 97.6437C7.84392 90.0902 6.72337 79.524 6.59407 76.7734H3.05176e-05C1.42227 83.7592 4.22367 104.28 5.17183 109.52C5.7752 109.476 6.76646 109.432 8.4042 109.432C9.69715 109.432 11.2918 109.476 12.24 109.52C12.6278 106.551 13.6622 98.6916 14.5242 92.3606C14.912 89.6536 15.2568 86.2043 15.4723 83.4536H15.5154C15.774 86.2043 16.0326 89.5663 16.3774 92.2733C17.067 98.6479 18.0151 106.856 18.3599 109.52C19.0495 109.476 20.5579 109.432 22.4112 109.432C23.7041 109.432 24.8678 109.476 25.6866 109.52C26.4624 104.673 29.4793 83.8029 30.8153 76.7734H25.4711Z" fill="black"/>
<path d="M39.5033 78.2142C39.5033 76.9917 38.8569 76.2058 36.1417 76.2058C33.3403 76.2058 32.6938 76.9917 32.6938 78.2142C32.6938 79.3494 33.2541 80.3973 36.1417 80.3973C38.9 80.3973 39.5033 79.3494 39.5033 78.2142ZM38.9431 109.52C38.8569 105.59 38.8569 101.923 38.8569 95.6353C38.8569 90.4832 38.8569 86.4226 38.9431 82.4494H33.2541C33.2972 86.379 33.2972 90.3958 33.2972 95.5043C33.2972 100.918 33.2972 105.416 33.2541 109.52H38.9431Z" fill="black"/>
<path d="M49.818 77.4283C48.956 77.4719 47.9647 77.4719 47.0166 77.4719C46.0684 77.4719 44.991 77.4719 44.129 77.4283V82.4931L41.9741 82.4494C42.0172 83.8466 42.0172 85.9423 42.0172 87.3832L44.0859 87.4268C44.0428 93.0592 43.9997 98.386 43.9997 102.577C43.9997 106.9 45.7667 109.782 50.8954 109.782C52.7056 109.782 53.5675 109.52 55.076 109.127C54.9036 107.73 54.5157 105.59 54.3864 103.931C53.6537 104.324 52.7487 104.542 51.8005 104.542C50.249 104.542 49.5594 103.975 49.5594 102.141C49.5594 96.7705 49.6025 91.8803 49.6456 87.5142C51.5419 87.5142 53.3089 87.5578 54.5157 87.6015C54.5157 86.0297 54.5588 84.0212 54.645 82.4494C53.0503 82.4931 51.3695 82.4931 49.7318 82.4931L49.818 77.4283Z" fill="black"/>
<path d="M75.6712 109.52C75.585 106.42 75.5419 103.451 75.5419 99.7831C75.5419 96.6395 75.6281 94.1944 75.6281 89.1733C75.6281 84.1522 73.387 82.0564 69.8099 82.0564C66.8792 82.0564 64.8967 83.1043 63.8192 85.6367L63.6037 85.593C63.6468 84.3705 63.6899 83.3663 63.6899 82.1001C63.6899 80.048 63.733 78.2142 63.7761 75.7255H57.9578C58.044 80.31 58.044 87.8198 58.044 95.286C58.044 101.704 58.044 105.459 57.9578 109.52H63.6899C63.6899 106.245 63.6468 103.232 63.6468 92.0113C63.6468 88.4311 65.1983 87.0339 67.2671 87.0339C69.2927 87.0339 69.9823 88.1254 69.9823 90.7451C69.9823 98.7789 69.9392 104.761 69.8961 109.52H75.6712Z" fill="black"/>
<path d="M92.9301 98.4733C92.1112 98.5169 91.0338 98.5606 89.827 98.5606C88.7496 98.5606 87.7583 98.5169 87.1118 98.4296C87.0256 99.2155 87.0256 99.9578 87.0256 101.137C87.0256 106.594 89.6546 110 96.8089 110C103.274 110 106.075 106.638 106.075 101.224C106.075 95.8536 103.36 92.6226 97.8002 90.3958C93.7059 88.693 93.0594 86.8156 93.0594 84.5888C93.0594 82.5367 94.0075 81.4015 96.5934 81.4015C99.5672 81.4015 100.429 82.5804 100.429 85.1564C100.429 85.986 100.429 86.8156 100.386 87.6451C101.076 87.6015 102.153 87.6015 103.144 87.6015C104.179 87.6015 105.127 87.6015 105.773 87.6451C105.816 86.6409 105.86 85.7677 105.86 84.9381C105.86 79.1748 103.274 76.2931 96.5072 76.2931C90.3011 76.2931 87.198 79.4367 87.198 84.5452C87.198 89.6973 89.2236 92.8846 95.6884 95.4606C99.481 96.9451 100.515 99.0845 100.515 101.573C100.515 103.844 99.6103 104.935 96.8089 104.935C93.8351 104.935 92.9301 103.844 92.9301 100.089V98.4733Z" fill="black"/>
<path d="M129.943 82.4494C129.728 85.0254 128.909 92.4043 128.263 98.0367C127.961 100.482 127.789 102.534 127.659 104.106H127.487C127.358 102.534 127.185 100.525 126.883 98.0367C126.108 92.3606 125.203 84.7198 125.03 82.4494C124.168 82.4931 122.832 82.4931 121.841 82.4931C120.936 82.4931 119.341 82.4931 118.479 82.4494C118.264 84.8508 117.316 92.4043 116.583 97.9057L115.893 104.106H115.721C115.592 102.49 115.419 100.394 115.161 97.9493C114.557 92.186 113.652 84.4578 113.523 82.4494H107.662C108.868 88.2564 111.153 105.372 111.928 109.52C112.532 109.476 113.437 109.476 115.031 109.476C116.238 109.476 117.617 109.476 118.436 109.52C118.824 107.031 119.686 100.438 120.419 94.631C120.72 92.4043 120.979 90.1775 121.151 88.3437H121.194C121.367 90.1339 121.539 92.317 121.841 94.5874C122.531 100.438 123.349 107.162 123.694 109.52C124.341 109.476 125.677 109.476 127.401 109.476C128.651 109.476 129.728 109.476 130.504 109.52C131.15 105.677 133.607 89.0423 134.77 82.4494H129.943Z" fill="black"/>
<path d="M143.503 78.2142C143.503 76.9917 142.857 76.2058 140.142 76.2058C137.34 76.2058 136.694 76.9917 136.694 78.2142C136.694 79.3494 137.254 80.3973 140.142 80.3973C142.9 80.3973 143.503 79.3494 143.503 78.2142ZM142.943 109.52C142.857 105.59 142.857 101.923 142.857 95.6353C142.857 90.4832 142.857 86.4226 142.943 82.4494H137.254C137.297 86.379 137.297 90.3958 137.297 95.5043C137.297 100.918 137.297 105.416 137.254 109.52H142.943Z" fill="black"/>
<path d="M148.172 84.7198H146.103C146.146 86.2916 146.146 88.2564 146.103 89.7846L148.258 89.7409C148.258 91.5747 148.301 93.2339 148.301 94.5437C148.301 99.1719 148.258 104.411 148.086 109.52C149.206 109.432 150.155 109.432 151.06 109.432C152.008 109.432 152.913 109.432 154.033 109.52C153.818 104.411 153.818 98.9099 153.818 89.6973C155.542 89.6973 157.266 89.7409 158.99 89.7846V84.6325L153.818 84.6761V82.7114C153.818 81.0959 154.507 80.5283 156.318 80.5283C157.395 80.5283 158.3 80.7466 158.99 81.0086C159.119 79.5677 159.378 77.21 159.507 75.9438C158.128 75.5945 157.05 75.3325 154.982 75.3325C150.111 75.3325 148.172 78.1269 148.172 81.9254V84.7198Z" fill="black"/>
<path d="M168.675 77.4283C167.813 77.4719 166.822 77.4719 165.874 77.4719C164.925 77.4719 163.848 77.4719 162.986 77.4283V82.4931L160.831 82.4494C160.874 83.8466 160.874 85.9423 160.874 87.3832L162.943 87.4268C162.9 93.0592 162.857 98.386 162.857 102.577C162.857 106.9 164.624 109.782 169.752 109.782C171.563 109.782 172.425 109.52 173.933 109.127C173.761 107.73 173.373 105.59 173.243 103.931C172.511 104.324 171.606 104.542 170.658 104.542C169.106 104.542 168.416 103.975 168.416 102.141C168.416 96.7705 168.46 91.8803 168.503 87.5142C170.399 87.5142 172.166 87.5578 173.373 87.6015C173.373 86.0297 173.416 84.0212 173.502 82.4494C171.907 82.4931 170.227 82.4931 168.589 82.4931L168.675 77.4283Z" fill="black"/>
<path d="M191.037 76.7734C191.124 81.9691 191.21 93.2775 191.21 99.2155C191.21 102.97 190.089 104.542 187.331 104.542C184.357 104.542 183.107 102.97 183.107 99.2155C183.107 93.2775 183.107 82.0128 183.28 76.7734H177.117C177.203 79.5677 177.289 82.4057 177.289 86.5536C177.289 89.8282 177.203 94.9803 177.203 99.3029C177.203 105.765 180.047 110 187.158 110C194.27 110 197.071 105.765 197.071 99.3029C197.071 94.9803 197.028 89.8282 197.028 86.5536C197.028 82.4057 197.071 79.5677 197.157 76.7734H191.037Z" fill="black"/>
<path d="M208.153 109.52C208.023 105.154 208.023 100.045 208.023 93.1029C208.023 86.117 208.023 81.0522 208.153 76.7734H202.033C202.162 81.0522 202.162 86.1606 202.162 93.1465C202.162 100.089 202.162 105.197 202.033 109.52H208.153Z" fill="black"/>
<path d="M37.2252 40.1212C34.8431 40.1212 32.7587 40.1212 30.5254 39.895C30.5254 37.0292 30.5254 33.6355 30.5254 29.3368C30.5254 25.3397 30.5998 21.1919 30.6743 17.2702C32.8331 17.1948 34.9919 17.1194 37.2252 17.1194C42.6595 17.1194 45.0417 18.9294 45.0417 28.4318C45.0417 38.085 42.5851 40.1212 37.2252 40.1212ZM0.376161 1.35748C0.525046 9.12532 0.599489 17.7227 0.599489 29.7139C0.599489 41.705 0.525046 49.9253 0.376161 57.9194H41.2451C67.0022 57.9194 75.712 51.8861 75.712 27.376C75.712 6.25951 65.5878 1.35748 41.6918 1.35748H0.376161Z" fill="black"/>
<path d="M81.0724 1.35748C81.3702 9.20073 81.4447 17.6473 81.4447 29.6384C81.4447 41.705 81.3702 49.9253 81.0724 57.9194H143.009C142.86 55.6569 142.86 52.3386 142.86 49.4728C142.86 46.3808 142.86 42.8362 143.009 40.6492C133.852 40.7246 121.048 40.8 111.966 40.8V34.9175C122.016 34.9175 134.001 35.0684 142.19 35.2946C142.115 31.8255 142.19 25.1889 142.264 22.0214C133.852 22.3231 122.09 22.3985 111.966 22.3985V16.6669C120.825 16.6669 132.736 16.7423 143.009 16.8177C142.86 15.0078 142.785 11.7649 142.785 8.97449C142.785 6.41035 142.934 3.24288 143.009 1.35748H81.0724Z" fill="black"/>
<path d="M173.889 39.4425C172.177 39.5179 169.87 39.5933 167.264 39.5933C160.713 39.5933 153.864 39.1408 148.802 38.8392C148.653 40.3475 148.579 41.8558 148.579 43.2133C148.579 54.9782 155.577 59.2769 183.716 59.2769C210.59 59.2769 218.704 53.9224 218.704 41.1017C218.704 28.658 213.046 24.4347 192.5 22.6248C179.622 21.4935 178.356 19.8344 178.356 17.1194C178.356 15.1586 179.77 13.9519 185.056 13.9519C191.235 13.9519 192.575 15.3094 192.575 18.0998V19.4573C194.436 19.3065 197.339 19.3065 200.614 19.3065C206.272 19.3065 213.344 19.5327 217.513 19.9098C217.587 18.6277 217.587 17.3456 217.587 16.2144C217.587 4.7512 210.962 0 182.897 0C158.257 0 148.356 5.12828 148.356 18.5523C148.356 29.3368 152.524 34.5405 175.527 36.275C186.991 37.1046 188.406 38.8392 188.406 41.705C188.406 43.9675 187.066 45.0987 181.334 45.0987C175.602 45.0987 173.889 43.7412 173.889 40.5737V39.4425Z" fill="black"/>
<path d="M255.409 57.9194C255.26 49.6236 255.186 41.4787 255.186 29.563C255.186 17.5719 255.186 9.5024 255.409 1.35748H224.069C224.292 9.5024 224.292 17.6473 224.292 29.6384C224.292 41.6296 224.292 49.6991 224.069 57.9194H255.409Z" fill="black"/>
<path d="M338.528 25.7922C331.456 25.9431 324.459 25.9431 319.099 25.9431C313.814 25.9431 306.667 25.9431 299.595 25.7922C299.669 27.2251 299.669 29.1859 299.669 31.373C299.669 32.6551 299.669 36.5767 299.595 37.9342C302.647 37.8588 306.146 37.7834 309.57 37.7834C308.751 42.0066 306.444 43.6658 301.754 43.6658C294.458 43.6658 292.151 39.5933 292.151 29.2614C292.151 18.4769 294.384 14.7061 300.786 14.7061C305.923 14.7061 308.156 16.2898 308.156 20.2115C308.156 20.7394 308.156 21.4181 308.081 22.0214C312.101 21.7952 317.163 21.7198 322.449 21.7198C328.032 21.7198 333.764 21.8706 338.603 22.0214C338.677 20.9656 338.677 19.9852 338.677 19.0048C338.752 6.41035 330.265 0 301.009 0C273.391 0 260.662 6.48576 260.662 28.9597C260.662 51.6599 273.689 59.2769 300.786 59.2769C334.434 59.2769 340.092 50.3778 338.528 25.7922Z" fill="black"/>
<path d="M394.02 1.35748C394.317 5.12828 394.466 11.9157 394.615 18.6277C394.69 21.4181 394.838 24.9627 395.136 28.8089L394.838 28.9597C393.796 25.9431 392.456 23.1527 391.191 20.4377C387.469 14.4044 380.471 4.37412 379.354 1.35748H345.334C345.632 9.20073 345.557 17.6473 345.557 29.6384C345.557 41.705 345.409 50.227 345.334 57.9194H371.538C371.315 55.6569 371.315 50.5286 371.24 43.1379C371.017 38.5375 370.868 34.4651 370.496 29.8647H370.645C371.985 33.3338 373.622 36.8029 375.483 40.3475C379.652 46.2299 385.161 53.3944 387.469 57.9194H419.851C419.628 50.6795 419.628 42.1575 419.628 29.563C419.628 17.5719 419.702 6.93826 420 1.35748H394.02Z" fill="black"/>
</svg>
